{
    "asset" : {
        "generator" : "Khronos glTF Blender I/O v1.6.16",
        "version" : "2.0"
    },
    "scene" : 0,
    "scenes" : [
        {
            "name" : "Scene",
            "nodes" : [
                0
            ]
        }
    ],
    "nodes" : [
        {
            "mesh" : 0,
            "name" : "camera_camera_0",
            "rotation" : [
                0,
                -0.7071067690849304,
                -0.7071067690849304,
                0
            ],
            "scale" : [
                0.20000000298023224,
                0.10000000149011612,
                0.10000000149011612
            ],
            "translation" : [
                0,
                0.7799999713897705,
                0
            ]
        }
    ],
    "materials" : [
        {
            "doubleSided" : true,
            "name" : "Material.001",
            "pbrMetallicRoughness" : {
                "baseColorFactor" : [
                    0.007962433621287346,
                    0.006878151558339596,
                    0.003882633289322257,
                    1
                ],
                "metallicFactor" : 0,
                "roughnessFactor" : 0.5
            }
        }
    ],
    "meshes" : [
        {
            "name" : "camera_camera_0.001",
            "primitives" : [
                {
                    "attributes" : {
                        "POSITION" : 0,
                        "NORMAL" : 1,
                        "TEXCOORD_0" : 2,
                        "TEXCOORD_1" : 3,
                        "TEXCOORD_2" : 4
                    },
                    "indices" : 5,
                    "material" : 0
                }
            ]
        }
    ],
    "accessors" : [
        {
            "bufferView" : 0,
            "componentType" : 5126,
            "count" : 1891,
            "max" : [
                1.7509499788284302,
                4.902744770050049,
                3.421818256378174
            ],
            "min" : [
                -2.6257505416870117,
                -5.503498554229736,
                -7.55750036239624
            ],
            "type" : "VEC3"
        },
        {
            "bufferView" : 1,
            "componentType" : 5126,
            "count" : 1891,
            "type" : "VEC3"
        },
        {
            "bufferView" : 2,
            "componentType" : 5126,
            "count" : 1891,
            "type" : "VEC2"
        },
        {
            "bufferView" : 3,
            "componentType" : 5126,
            "count" : 1891,
            "type" : "VEC2"
        },
        {
            "bufferView" : 4,
            "componentType" : 5126,
            "count" : 1891,
            "type" : "VEC2"
        },
        {
            "bufferView" : 5,
            "componentType" : 5123,
            "count" : 2142,
            "type" : "SCALAR"
        }
    ],
    "bufferViews" : [
        {
            "buffer" : 0,
            "byteLength" : 22692,
            "byteOffset" : 0
        },
        {
            "buffer" : 0,
            "byteLength" : 22692,
            "byteOffset" : 22692
        },
        {
            "buffer" : 0,
            "byteLength" : 15128,
            "byteOffset" : 45384
        },
        {
            "buffer" : 0,
            "byteLength" : 15128,
            "byteOffset" : 60512
        },
        {
            "buffer" : 0,
            "byteLength" : 15128,
            "byteOffset" : 75640
        },
        {
            "buffer" : 0,
            "byteLength" : 4284,
            "byteOffset" : 90768
        }
    ],
    "buffers" : [
        {
            "byteLength" : 95052,
            "uri" : "camaraPelicula.bin"
        }
    ]
}
